<svg xmlns="http://www.w3.org/2000/svg" xmlns:xlink="http://www.w3.org/1999/xlink" style="margin:auto;background:#ffffff;display:block;z-index:1;position:relative" width="1212" height="775" preserveAspectRatio="xMidYMid" viewBox="0 0 1212 775">
<g transform="translate(606,387.5) scale(1,1) translate(-606,-387.5)"><path id="path0" d="M 883.7397993513744 529.0463497560206
c 0 32.22050080299541 -7.883739558179726 9.254824698732724 -17.13856425691245 9.254824698732724
S 849.4626708375495 561.266850559016 849.4626708375495 529.0463497560206
s 7.883739558179726 -9.254824698732724 17.13856425691245 -9.254824698732724
S 883.7397993513744 496.82584895302523 883.7397993513744 529.0463497560206
z" fill="none" stroke="none"></path>
<circle cx="0" cy="0" r="7.0207045767501315" fill="#9df871">
  <animateMotion begin="-1.366190099974878s" dur="7.23s" repeatCount="indefinite">
    <mpath xlink:href="#path0"></mpath>
  </animateMotion>
</circle><path id="path1" d="M 999.9177147296086 431.34463904849883
c 0 22.004740130614568 -5.384138542597181 6.3205104630488655 -11.704649005646047 6.3205104630488655
S 976.5084167183165 453.3493791791134 976.5084167183165 431.34463904849883
s 5.384138542597181 -6.3205104630488655 11.704649005646047 -6.3205104630488655
S 999.9177147296086 409.3398989178843 999.9177147296086 431.34463904849883
z" fill="none" stroke="none"></path>
<circle cx="0" cy="0" r="4.195492993897563" fill="#9df871">
  <animateMotion begin="-1.2489371826221705s" dur="7.23s" repeatCount="indefinite">
    <mpath xlink:href="#path1"></mpath>
  </animateMotion>
</circle><path id="path2" d="M 646.4289000494774 289.76173709423443
c 0 25.418907276711444 -6.219519865578331 7.301175494374563 -13.520695359952894 7.301175494374563
S 619.3875093295716 315.18064437094586 619.3875093295716 289.76173709423443
s 6.219519865578331 -7.301175494374563 13.520695359952894 -7.301175494374563
S 646.4289000494774 264.342829817523 646.4289000494774 289.76173709423443
z" fill="none" stroke="none"></path>
<circle cx="0" cy="0" r="4.9090190763856825" fill="#de9dd6">
  <animateMotion begin="-5.698296643794729s" dur="7.23s" repeatCount="indefinite">
    <mpath xlink:href="#path2"></mpath>
  </animateMotion>
</circle><path id="path3" d="M 1194.6451694381594 102.80213848108347
c 0 33.21176425276555 -8.126282742697953 9.539549306645425 -17.66583204934338 9.539549306645425
S 1159.3135053394726 136.01390273384902 1159.3135053394726 102.80213848108347
s 8.126282742697953 -9.539549306645425 17.66583204934338 -9.539549306645425
S 1194.6451694381594 69.59037422831793 1194.6451694381594 102.80213848108347
z" fill="none" stroke="none"></path>
<circle cx="0" cy="0" r="5.046651767084271" fill="#e0ff77">
  <animateMotion begin="-2.0838753905236076s" dur="7.23s" repeatCount="indefinite">
    <mpath xlink:href="#path3"></mpath>
  </animateMotion>
</circle><path id="path4" d="M 599.4062844406307 57.97715280761546
c 0 19.120727246573885 -4.678475815651057 5.492123783590372 -10.170599599241427 5.492123783590372
S 579.0650852421478 77.09788005418935 579.0650852421478 57.97715280761546
s 4.678475815651057 -5.492123783590372 10.170599599241427 -5.492123783590372
S 599.4062844406307 38.856425561041576 599.4062844406307 57.97715280761546
z" fill="none" stroke="none"></path>
<circle cx="0" cy="0" r="6.387915522728691" fill="#9df871">
  <animateMotion begin="-2.7872353957529596s" dur="7.23s" repeatCount="indefinite">
    <mpath xlink:href="#path4"></mpath>
  </animateMotion>
</circle><path id="path5" d="M 309.910086719873 208.67679865510405
c 0 33.16413411317712 -8.114628559607167 9.525868309104068 -17.640496868711235 9.525868309104068
S 274.6290929824505 241.84093276828116 274.6290929824505 208.67679865510405
s 8.114628559607167 -9.525868309104068 17.640496868711235 -9.525868309104068
S 309.910086719873 175.51266454192694 309.910086719873 208.67679865510405
z" fill="none" stroke="none"></path>
<circle cx="0" cy="0" r="6.0029414640173515" fill="#de9dd6">
  <animateMotion begin="-2.46701660002709s" dur="7.23s" repeatCount="indefinite">
    <mpath xlink:href="#path5"></mpath>
  </animateMotion>
</circle><path id="path6" d="M 276.7793886280136 37.64197819612706
c 0 23.12906270530593 -5.65923874704294 6.643454181311278 -12.302692928354217 6.643454181311278
S 252.17400277130517 60.771040901433 252.17400277130517 37.64197819612706
s 5.65923874704294 -6.643454181311278 12.302692928354217 -6.643454181311278
S 276.7793886280136 14.512915490821133 276.7793886280136 37.64197819612706
z" fill="none" stroke="none"></path>
<circle cx="0" cy="0" r="6.8795164819105565" fill="#e0ff77">
  <animateMotion begin="-4.343894283691621s" dur="7.23s" repeatCount="indefinite">
    <mpath xlink:href="#path6"></mpath>
  </animateMotion>
</circle><path id="path7" d="M 942.5422962963182 414.59504365271914
c 0 35.83668314110492 -8.76855013027035 10.29351537031737 -19.06206550058772 10.29351537031737
S 904.4181652951429 450.43172679382405 904.4181652951429 414.59504365271914
s 8.76855013027035 -10.29351537031737 19.06206550058772 -10.29351537031737
S 942.5422962963182 378.7583605116142 942.5422962963182 414.59504365271914
z" fill="none" stroke="none"></path>
<circle cx="0" cy="0" r="7.2013328078743095" fill="#e0ff77">
  <animateMotion begin="-0.8597726967389305s" dur="7.23s" repeatCount="indefinite">
    <mpath xlink:href="#path7"></mpath>
  </animateMotion>
</circle><path id="path8" d="M 840.8544115282062 252.7445032648978
c 0 30.18264204013183 -7.385114541734383 8.669482288122973 -16.054596829857356 8.669482288122973
S 808.7452178684915 282.9271453050296 808.7452178684915 252.7445032648978
s 7.385114541734383 -8.669482288122973 16.054596829857356 -8.669482288122973
S 840.8544115282062 222.56186122476595 840.8544115282062 252.7445032648978
z" fill="none" stroke="none"></path>
<circle cx="0" cy="0" r="7.3796078074696725" fill="#de9dd6">
  <animateMotion begin="-6.247897267724163s" dur="7.23s" repeatCount="indefinite">
    <mpath xlink:href="#path8"></mpath>
  </animateMotion>
</circle><path id="path9" d="M 251.62766199085348 201.73548703887042
c 0 26.94640712165228 -6.593269827638323 7.739925449836293 -14.333195277474616 7.739925449836293
S 222.96127143590428 228.6818941605227 222.96127143590428 201.73548703887042
s 6.593269827638323 -7.739925449836293 14.333195277474616 -7.739925449836293
S 251.62766199085348 174.78907991721815 251.62766199085348 201.73548703887042
z" fill="none" stroke="none"></path>
<circle cx="0" cy="0" r="7.711745619838709" fill="#e0ff77">
  <animateMotion begin="-4.7658431520590625s" dur="7.23s" repeatCount="indefinite">
    <mpath xlink:href="#path9"></mpath>
  </animateMotion>
</circle><path id="path10" d="M 868.963639676102 543.2058768057952
c 0 24.94387236263951 -6.103287918518177 7.1647292956517745 -13.268017214169952 7.1647292956517745
S 842.4276052477621 568.1497491684347 842.4276052477621 543.2058768057952
s 6.103287918518177 -7.1647292956517745 13.268017214169952 -7.1647292956517745
S 868.963639676102 518.2620044431558 868.963639676102 543.2058768057952
z" fill="none" stroke="none"></path>
<circle cx="0" cy="0" r="7.286309158190239" fill="#51cacc">
  <animateMotion begin="-6.804330510091999s" dur="7.23s" repeatCount="indefinite">
    <mpath xlink:href="#path10"></mpath>
  </animateMotion>
</circle><path id="path11" d="M 483.52489433226395 173.50317663908592
c 0 34.21032046841079 -8.370610327377108 9.826368645181825 -18.19697897255893 9.826368645181825
S 447.13093638714605 207.71349710749672 447.13093638714605 173.50317663908592
s 8.370610327377108 -9.826368645181825 18.19697897255893 -9.826368645181825
S 483.52489433226395 139.29285617067512 483.52489433226395 173.50317663908592
z" fill="none" stroke="none"></path>
<circle cx="0" cy="0" r="7.955864200605925" fill="#ff708e">
  <animateMotion begin="-2.7575427937016754s" dur="7.23s" repeatCount="indefinite">
    <mpath xlink:href="#path11"></mpath>
  </animateMotion>
</circle><path id="path12" d="M 908.9587286290804 607.1418967166921
c 0 20.43069755589178 -4.999000465803307 5.868391851160404 -10.867392316963711 5.868391851160404
S 887.223943995153 627.572594272584 887.223943995153 607.1418967166921
s 4.999000465803307 -5.868391851160404 10.867392316963711 -5.868391851160404
S 908.9587286290804 586.7111991608003 908.9587286290804 607.1418967166921
z" fill="none" stroke="none"></path>
<circle cx="0" cy="0" r="6.45703156720234" fill="#51cacc">
  <animateMotion begin="-2.66229345332122s" dur="7.23s" repeatCount="indefinite">
    <mpath xlink:href="#path12"></mpath>
  </animateMotion>
</circle><path id="path13" d="M 528.4734433939561 482.9168112172619
c 0 23.582963682476628 -5.770299624435769 6.7738299939028614 -12.54412961833863 6.7738299939028614
S 503.3851841572789 506.49977489973855 503.3851841572789 482.9168112172619
s 5.770299624435769 -6.7738299939028614 12.54412961833863 -6.7738299939028614
S 528.4734433939561 459.33384753478526 528.4734433939561 482.9168112172619
z" fill="none" stroke="none"></path>
<circle cx="0" cy="0" r="5.740866826112521" fill="#de9dd6">
  <animateMotion begin="-1.9788791818403548s" dur="7.23s" repeatCount="indefinite">
    <mpath xlink:href="#path13"></mpath>
  </animateMotion>
</circle><path id="path14" d="M 1150.0024287303108 688.5906044133418
c 0 37.44583086108291 -9.162277763881988 10.755717374991901 -19.91799513887389 10.755717374991901
S 1110.166438452563 726.0364352744247 1110.166438452563 688.5906044133418
s 9.162277763881988 -10.755717374991901 19.91799513887389 -10.755717374991901
S 1150.0024287303108 651.1447735522589 1150.0024287303108 688.5906044133418
z" fill="none" stroke="none"></path>
<circle cx="0" cy="0" r="5.264787460703247" fill="#e0ff77">
  <animateMotion begin="-6.236264952507573s" dur="7.23s" repeatCount="indefinite">
    <mpath xlink:href="#path14"></mpath>
  </animateMotion>
</circle><path id="path15" d="M 1063.6998879284051 586.8402239951146
c 0 21.14495883309743 -5.173766522991923 6.07355200525139 -11.247318528243312 6.07355200525139
S 1041.2052508719185 607.985182828212 1041.2052508719185 586.8402239951146
s 5.173766522991923 -6.07355200525139 11.247318528243312 -6.07355200525139
S 1063.6998879284051 565.6952651620171 1063.6998879284051 586.8402239951146
z" fill="none" stroke="none"></path>
<circle cx="0" cy="0" r="7.925568315710892" fill="#9df871">
  <animateMotion begin="-5.812497665432546s" dur="7.23s" repeatCount="indefinite">
    <mpath xlink:href="#path15"></mpath>
  </animateMotion>
</circle><path id="path16" d="M 1106.994221213228 379.20996959434444
c 0 25.11961284464177 -6.146288249220858 7.21520794473753 -13.361496193958388 7.21520794473753
S 1080.2712288253113 404.3295824389862 1080.2712288253113 379.20996959434444
s 6.146288249220858 -7.21520794473753 13.361496193958388 -7.21520794473753
S 1106.994221213228 354.09035674970266 1106.994221213228 379.20996959434444
z" fill="none" stroke="none"></path>
<circle cx="0" cy="0" r="4.211856063595712" fill="#9df871">
  <animateMotion begin="-2.9823708195431804s" dur="7.23s" repeatCount="indefinite">
    <mpath xlink:href="#path16"></mpath>
  </animateMotion>
</circle><path id="path17" d="M 849.7804875135274 693.0223841548968
c 0 35.037674559435814 -8.573048030500251 10.064012905369863 -18.637060935870114 10.064012905369863
S 812.5063656417873 728.0600587143326 812.5063656417873 693.0223841548968
s 8.573048030500251 -10.064012905369863 18.637060935870114 -10.064012905369863
S 849.7804875135274 657.984709595461 849.7804875135274 693.0223841548968
z" fill="none" stroke="none"></path>
<circle cx="0" cy="0" r="5.708189200875074" fill="#ff708e">
  <animateMotion begin="-6.866657333196866s" dur="7.23s" repeatCount="indefinite">
    <mpath xlink:href="#path17"></mpath>
  </animateMotion>
</circle><path id="path18" d="M 1037.8828762705468 170.45438129512908
c 0 23.028023919009463 -5.634516490821464 6.614432402268675 -12.24894889309014 6.614432402268675
S 1013.3849784843666 193.48240521413854 1013.3849784843666 170.45438129512908
s 5.634516490821464 -6.614432402268675 12.24894889309014 -6.614432402268675
S 1037.8828762705468 147.42635737611963 1037.8828762705468 170.45438129512908
z" fill="none" stroke="none"></path>
<circle cx="0" cy="0" r="4.531804579401454" fill="#ff708e">
  <animateMotion begin="-6.194596664804317s" dur="7.23s" repeatCount="indefinite">
    <mpath xlink:href="#path18"></mpath>
  </animateMotion>
</circle><path id="path19" d="M 372.02162190122726 460.7848344678235
c 0 32.27436351532892 -7.896918732474098 9.270295903339159 -17.167214635813256 9.270295903339159
S 337.68719262960076 493.0591979831524 337.68719262960076 460.7848344678235
s 7.896918732474098 -9.270295903339159 17.167214635813256 -9.270295903339159
S 372.02162190122726 428.5104709524946 372.02162190122726 460.7848344678235
z" fill="none" stroke="none"></path>
<circle cx="0" cy="0" r="4.710807277619859" fill="#51cacc">
  <animateMotion begin="-5.923595436200824s" dur="7.23s" repeatCount="indefinite">
    <mpath xlink:href="#path19"></mpath>
  </animateMotion>
</circle><path id="path20" d="M 661.6168485919035 88.67386241438619
c 0 19.165916606105707 -4.689532786600332 5.505103706009087 -10.194636492609419 5.505103706009087
S 641.2275756066846 107.8397790204919 641.2275756066846 88.67386241438619
s 4.689532786600332 -5.505103706009087 10.194636492609419 -5.505103706009087
S 661.6168485919035 69.50794580828048 661.6168485919035 88.67386241438619
z" fill="none" stroke="none"></path>
<circle cx="0" cy="0" r="7.736326384531068" fill="#e0ff77">
  <animateMotion begin="-4.419100841338621s" dur="7.23s" repeatCount="indefinite">
    <mpath xlink:href="#path20"></mpath>
  </animateMotion>
</circle><path id="path21" d="M 905.2520040146189 654.8767408192901
c 0 23.035853393429306 -5.636432213285893 6.616681293857354 -12.253113507143247 6.616681293857354
S 880.7457770003325 677.9125942127195 880.7457770003325 654.8767408192901
s 5.636432213285893 -6.616681293857354 12.253113507143247 -6.616681293857354
S 905.2520040146189 631.8408874258608 905.2520040146189 654.8767408192901
z" fill="none" stroke="none"></path>
<circle cx="0" cy="0" r="4.4393264891237605" fill="#9df871">
  <animateMotion begin="-6.821823842510323s" dur="7.23s" repeatCount="indefinite">
    <mpath xlink:href="#path21"></mpath>
  </animateMotion>
</circle><path id="path22" d="M 1087.3854877238698 735.8799589700442
c 0 35.39173342538861 -8.659679455148275 10.165710664739281 -18.825390119887558 10.165710664739281
S 1049.7347074840948 771.2716923954328 1049.7347074840948 735.8799589700442
s 8.659679455148275 -10.165710664739281 18.825390119887558 -10.165710664739281
S 1087.3854877238698 700.4882255446556 1087.3854877238698 735.8799589700442
z" fill="none" stroke="none"></path>
<circle cx="0" cy="0" r="6.018166501045597" fill="#9df871">
  <animateMotion begin="-2.353246375496636s" dur="7.23s" repeatCount="indefinite">
    <mpath xlink:href="#path22"></mpath>
  </animateMotion>
</circle><path id="path23" d="M 340.1342365888894 503.6943928664327
c 0 26.808011002629346 -6.559406947451861 7.700173373095664 -14.259580320547524 7.700173373095664
S 311.61507594779437 530.502403869062 311.61507594779437 503.6943928664327
s 6.559406947451861 -7.700173373095664 14.259580320547524 -7.700173373095664
S 340.1342365888894 476.8863818638033 340.1342365888894 503.6943928664327
z" fill="none" stroke="none"></path>
<circle cx="0" cy="0" r="6.643017848038754" fill="#ff708e">
  <animateMotion begin="-1.8414914938799811s" dur="7.23s" repeatCount="indefinite">
    <mpath xlink:href="#path23"></mpath>
  </animateMotion>
</circle><path id="path24" d="M 721.8941957368064 133.28871345449377
c 0 30.490306597045485 -7.460394167362192 8.757854022555618 -16.21824818991781 8.757854022555618
S 689.4576993569707 163.77902005153925 689.4576993569707 133.28871345449377
s 7.460394167362192 -8.757854022555618 16.21824818991781 -8.757854022555618
S 721.8941957368064 102.79840685744828 721.8941957368064 133.28871345449377
z" fill="none" stroke="none"></path>
<circle cx="0" cy="0" r="6.242810357684765" fill="#de9dd6">
  <animateMotion begin="-4.6014469254848684s" dur="7.23s" repeatCount="indefinite">
    <mpath xlink:href="#path24"></mpath>
  </animateMotion>
</circle><path id="path25" d="M 691.0562627623376 640.0380717900605
c 0 23.888340510287083 -5.845019486559605 6.861544614656928 -12.706564101216532 6.861544614656928
S 665.6431345599046 663.9264123003476 665.6431345599046 640.0380717900605
s 5.845019486559605 -6.861544614656928 12.706564101216532 -6.861544614656928
S 691.0562627623376 616.1497312797734 691.0562627623376 640.0380717900605
z" fill="none" stroke="none"></path>
<circle cx="0" cy="0" r="7.240492722464607" fill="#9df871">
  <animateMotion begin="-4.529716581458981s" dur="7.23s" repeatCount="indefinite">
    <mpath xlink:href="#path25"></mpath>
  </animateMotion>
</circle><path id="path26" d="M 95.68786386102796 607.1693108731474
c 0 30.625702090546568 -7.493522851942244 8.79674421749742 -16.290267069439665 8.79674421749742
S 63.107329722148634 637.795012963694 63.107329722148634 607.1693108731474
s 7.493522851942244 -8.79674421749742 16.290267069439665 -8.79674421749742
S 95.68786386102796 576.5436087826008 95.68786386102796 607.1693108731474
z" fill="none" stroke="none"></path>
<circle cx="0" cy="0" r="4.388126489258241" fill="#e0ff77">
  <animateMotion begin="-2.2230220884372596s" dur="7.23s" repeatCount="indefinite">
    <mpath xlink:href="#path26"></mpath>
  </animateMotion>
</circle><path id="path27" d="M 1039.4739720328794 50.12177281288659
c 0 33.57292043370985 -8.214650744418366 9.643285656491125 -17.85793640090949 9.643285656491125
S 1003.7580992310603 83.69469324659644 1003.7580992310603 50.12177281288659
s 8.214650744418366 -9.643285656491125 17.85793640090949 -9.643285656491125
S 1039.4739720328794 16.548852379176743 1039.4739720328794 50.12177281288659
z" fill="none" stroke="none"></path>
<circle cx="0" cy="0" r="7.065180774404437" fill="#51cacc">
  <animateMotion begin="-0.23996626053546977s" dur="7.23s" repeatCount="indefinite">
    <mpath xlink:href="#path27"></mpath>
  </animateMotion>
</circle><path id="path28" d="M 231.8038517196366 143.1689786738943
c 0 35.96161369558495 -8.799118244664403 10.329399678519081 -19.128517923183484 10.329399678519081
S 193.54681587326962 179.13059236947925 193.54681587326962 143.1689786738943
s 8.799118244664403 -10.329399678519081 19.128517923183484 -10.329399678519081
S 231.8038517196366 107.20736497830933 231.8038517196366 143.1689786738943
z" fill="none" stroke="none"></path>
<circle cx="0" cy="0" r="7.5471602598541825" fill="#9df871">
  <animateMotion begin="-0.13020039002716713s" dur="7.23s" repeatCount="indefinite">
    <mpath xlink:href="#path28"></mpath>
  </animateMotion>
</circle><path id="path29" d="M 334.5542801109373 224.12162419186092
c 0 34.17777822854927 -8.362647864432269 9.817021406072664 -18.17966927050493 9.817021406072664
S 298.1949415699275 258.29940242041016 298.1949415699275 224.12162419186092
s 8.362647864432269 -9.817021406072664 18.17966927050493 -9.817021406072664
S 334.5542801109373 189.94384596331165 334.5542801109373 224.12162419186092
z" fill="none" stroke="none"></path>
<circle cx="0" cy="0" r="4.458902241312585" fill="#ff708e">
  <animateMotion begin="-0.2703374201354871s" dur="7.23s" repeatCount="indefinite">
    <mpath xlink:href="#path29"></mpath>
  </animateMotion>
</circle></g>
</svg>