<?xml version="1.0" standalone="no"?><!DOCTYPE svg PUBLIC "-//W3C//DTD SVG 1.1//EN" "http://www.w3.org/Graphics/SVG/1.1/DTD/svg11.dtd"><svg t="1639378745389" class="icon" viewBox="0 0 1024 1024" version="1.1" xmlns="http://www.w3.org/2000/svg" p-id="4660" xmlns:xlink="http://www.w3.org/1999/xlink" width="200" height="200"><defs><style type="text/css"></style></defs><path d="M92.16 460.8h604.16c107.453 0 194.56 87.107 194.56 194.56s-87.107 194.56-194.56 194.56H92.16c98.97 0 179.2-80.23 179.2-179.2V640c0-98.97-80.23-179.2-179.2-179.2z" fill="#EDD388" p-id="4661"></path><path d="M652.333 499.63l10.072-178.422H507.576c0.246 274.514 0.615 417.915 1.106 430.203 0.738 18.432 1.106 28.877 1.106 31.335 0 9.83-7.127 17.94-21.381 24.33-14.254 6.39-23.47 9.584-27.648 9.584-4.178 0-7.004-1.843-8.479-5.53-1.474-3.686-1.72-10.198-0.737-19.537 2.621-25.56 4.588-182.354 5.898-470.385H312.197c-20.644 0-37.355 2.704-50.135 8.11l-26.542-32.44c18.186 2.458 38.584 3.686 61.194 3.686h160.727V247.48c0-43.254-0.983-84.787-2.949-124.6l75.94 31.703c5.898 1.966 8.847 4.3 8.847 7.004 0 2.704-2.949 5.776-8.847 9.216l-22.856 14.746v115.015h147.456l28.017-34.652 52.347 40.55c4.424 2.95 6.635 5.653 6.635 8.11 0 2.458-2.949 5.408-8.847 8.848l-22.118 11.797-10.322 143.77-48.41 20.643z m45.871-319.242c61.932 16.22 103.465 30.966 124.6 44.237 21.136 13.27 31.704 30.474 31.704 51.61 0 8.847-2.335 16.71-7.005 23.592-4.67 6.882-11.305 10.322-19.906 10.322-8.602 0-17.818-7.127-27.648-21.381-17.695-27.525-53.821-60.703-108.38-99.533l6.635-8.847z" fill="#fff" p-id="4662"></path></svg>