<svg xmlns="http://www.w3.org/2000/svg" xmlns:xlink="http://www.w3.org/1999/xlink" style="margin:auto;background:#012c32;display:block;z-index:1;position:relative" width="1016" height="316" preserveAspectRatio="xMidYMid" viewBox="0 0 1016 316">
<g transform="translate(508,158) scale(1,1) translate(-508,-158)"><path d="M-100 155.07C-79.62 155.05 -79.74 161.82 -60.77 161.82S-40.45 158.46 -21.55 158.46S-1.27 155.8 17.68 155.8S38.07 161.21 56.9 161.21S77.21 162.33 96.13 162.33S115.78 156.09 135.35 156.09S155.09 161.56 174.58 161.56S194.51 162.45 213.81 162.45S233.88 156.46 253.03 156.46S273.21 158.04 292.26 158.04S311.96 157.86 331.48 157.86S351.88 157.51 370.71 157.51S390.88 156.06 409.94 156.06S429.65 162.09 449.16 162.09S469.54 161.31 488.39 161.31S508.62 158.47 527.61 158.47S547.78 157.57 566.84 157.57S587.06 155.45 606.06 155.45S625.8 161.21 645.29 161.21S665.14 157.89 684.52 157.89S704.8 155.57 723.74 155.57S743.56 161.38 762.97 161.38S782.66 160.31 802.19 160.31S822.17 157.18 841.42 157.18S861.45 161.41 880.65 161.41S900.59 157.36 919.87 157.36S940.22 157.34 959.1 157.34S979.17 158.8 998.32 158.8S1018.26 158.58 1037.55 158.58S1057.22 157.03 1076.77 157.03S1096.49 162.43 1116 162.43S1135.84 159.32 1155.23 159.32L1116 316 L-100 316 Z" fill="#0f3135" stroke-width="0">
  <animate attributeName="d" dur="25s" repeatCount="indefinite" values="M-100 155.07C-79.62 155.05 -79.74 161.82 -60.77 161.82S-40.45 158.46 -21.55 158.46S-1.27 155.8 17.68 155.8S38.07 161.21 56.9 161.21S77.21 162.33 96.13 162.33S115.78 156.09 135.35 156.09S155.09 161.56 174.58 161.56S194.51 162.45 213.81 162.45S233.88 156.46 253.03 156.46S273.21 158.04 292.26 158.04S311.96 157.86 331.48 157.86S351.88 157.51 370.71 157.51S390.88 156.06 409.94 156.06S429.65 162.09 449.16 162.09S469.54 161.31 488.39 161.31S508.62 158.47 527.61 158.47S547.78 157.57 566.84 157.57S587.06 155.45 606.06 155.45S625.8 161.21 645.29 161.21S665.14 157.89 684.52 157.89S704.8 155.57 723.74 155.57S743.56 161.38 762.97 161.38S782.66 160.31 802.19 160.31S822.17 157.18 841.42 157.18S861.45 161.41 880.65 161.41S900.59 157.36 919.87 157.36S940.22 157.34 959.1 157.34S979.17 158.8 998.32 158.8S1018.26 158.58 1037.55 158.58S1057.22 157.03 1076.77 157.03S1096.49 162.43 1116 162.43S1135.84 159.32 1155.23 159.32L1116 316 L-100 316 Z;M-100 157.59C-79.67 158.18 -80.18 160.56 -60.77 160.56S-41.03 161.44 -21.55 161.44S-1.86 155.89 17.68 155.89S37.43 158.04 56.9 158.04S76.52 159.81 96.13 159.81S116.18 159.55 135.35 159.55S155.26 162.15 174.58 162.15S194.52 157.7 213.81 157.7S233.6 159.75 253.03 159.75S272.78 159.96 292.26 159.96S311.89 161.48 331.48 161.48S351.46 160.79 370.71 160.79S390.75 156.33 409.94 156.33S429.83 155.84 449.16 155.84S469.44 160.28 488.39 160.28S508.08 162.32 527.61 162.32S547.37 160.39 566.84 160.39S587.14 157.14 606.06 157.14S625.74 156.61 645.29 156.61S665.12 157.83 684.52 157.83S704.77 158.52 723.74 158.52S743.62 159.14 762.97 159.14S783 156.7 802.19 156.7S821.89 159.65 841.42 159.65S861.73 160.92 880.65 160.92S900.56 158.88 919.87 158.88S940.16 157.61 959.1 157.61S978.94 158.19 998.32 158.19S1018.48 161.02 1037.55 161.02S1057.5 158.11 1076.77 158.11S1097.1 160 1116 160S1135.78 158.74 1155.23 158.74L1116 316 L-100 316 Z;M-100 155.07C-79.62 155.05 -79.74 161.82 -60.77 161.82S-40.45 158.46 -21.55 158.46S-1.27 155.8 17.68 155.8S38.07 161.21 56.9 161.21S77.21 162.33 96.13 162.33S115.78 156.09 135.35 156.09S155.09 161.56 174.58 161.56S194.51 162.45 213.81 162.45S233.88 156.46 253.03 156.46S273.21 158.04 292.26 158.04S311.96 157.86 331.48 157.86S351.88 157.51 370.71 157.51S390.88 156.06 409.94 156.06S429.65 162.09 449.16 162.09S469.54 161.31 488.39 161.31S508.62 158.47 527.61 158.47S547.78 157.57 566.84 157.57S587.06 155.45 606.06 155.45S625.8 161.21 645.29 161.21S665.14 157.89 684.52 157.89S704.8 155.57 723.74 155.57S743.56 161.38 762.97 161.38S782.66 160.31 802.19 160.31S822.17 157.18 841.42 157.18S861.45 161.41 880.65 161.41S900.59 157.36 919.87 157.36S940.22 157.34 959.1 157.34S979.17 158.8 998.32 158.8S1018.26 158.58 1037.55 158.58S1057.22 157.03 1076.77 157.03S1096.49 162.43 1116 162.43S1135.84 159.32 1155.23 159.32L1116 316 L-100 316 Z"></animate>
  <animateTransform attributeName="transform" type="translate" dur="25s" begin="0s" repeatCount="indefinite" values="0;10;0" calcMode="spline" keySplines="0.3 0 0.7 1;0.3 0 0.7 1"></animateTransform>
</path><path d="M-100 163.24C-79.72 163.97 -79.08 165.87 -59.74 165.87S-39.32 168.64 -19.47 168.64S1.02 168.91 20.79 168.91S41.01 167.97 61.06 167.97S81.55 165.48 101.32 165.48S121.61 162.78 141.59 162.78S162.48 164.47 181.85 164.47S202.44 169.71 222.12 169.71S242.33 167.83 262.38 167.83S282.58 164.02 302.65 164.02S323.35 170.15 342.91 170.15S363.09 165.16 383.18 165.16S403.96 168.43 423.44 168.43S444.25 167.57 463.71 167.57S484.37 171.8 503.97 171.8S524.59 165.57 544.24 165.57S565.14 165.3 584.5 165.3S604.96 167.73 624.77 167.73S645.46 168.65 665.03 168.65S685.27 169.67 705.3 169.67S725.71 167.99 745.56 167.99S766.12 166.42 785.83 166.42S806.62 168 826.09 168S846.28 167.98 866.36 167.98S886.96 166.74 906.62 166.74S927.08 167.63 946.89 167.63S967.41 167.09 987.15 167.09S1007.73 165.39 1027.42 165.39S1047.7 169.47 1067.68 169.47S1088.23 168.68 1107.95 168.68S1128.33 165.19 1148.21 165.19L1116 316 L-100 316 Z" fill="#254346" stroke-width="0">
  <animate attributeName="d" dur="22.5s" repeatCount="indefinite" values="M-100 163.24C-79.72 163.97 -79.08 165.87 -59.74 165.87S-39.32 168.64 -19.47 168.64S1.02 168.91 20.79 168.91S41.01 167.97 61.06 167.97S81.55 165.48 101.32 165.48S121.61 162.78 141.59 162.78S162.48 164.47 181.85 164.47S202.44 169.71 222.12 169.71S242.33 167.83 262.38 167.83S282.58 164.02 302.65 164.02S323.35 170.15 342.91 170.15S363.09 165.16 383.18 165.16S403.96 168.43 423.44 168.43S444.25 167.57 463.71 167.57S484.37 171.8 503.97 171.8S524.59 165.57 544.24 165.57S565.14 165.3 584.5 165.3S604.96 167.73 624.77 167.73S645.46 168.65 665.03 168.65S685.27 169.67 705.3 169.67S725.71 167.99 745.56 167.99S766.12 166.42 785.83 166.42S806.62 168 826.09 168S846.28 167.98 866.36 167.98S886.96 166.74 906.62 166.74S927.08 167.63 946.89 167.63S967.41 167.09 987.15 167.09S1007.73 165.39 1027.42 165.39S1047.7 169.47 1067.68 169.47S1088.23 168.68 1107.95 168.68S1128.33 165.19 1148.21 165.19L1116 316 L-100 316 Z;M-100 164.2C-79.75 163 -79.82 168.23 -59.74 168.23S-39.09 169.49 -19.47 169.49S1.4 167.41 20.79 167.41S41.52 166.66 61.06 166.66S81.31 169.27 101.32 169.27S121.56 168.54 141.59 168.54S162.34 170.19 181.85 170.19S202.23 165.38 222.12 165.38S242.27 169.3 262.38 169.3S282.55 167.01 302.65 167.01S323.08 163.55 342.91 163.55S363.21 164.52 383.18 164.52S403.45 170.2 423.44 170.2S443.99 163.83 463.71 163.83S484.31 167.35 503.97 167.35S524.54 164.63 544.24 164.63S564.51 164.81 584.5 164.81S605.14 163.69 624.77 163.69S645.41 172.02 665.03 172.02S685.88 166.23 705.3 166.23S725.73 164.84 745.56 164.84S765.93 168.62 785.83 168.62S806.22 169.55 826.09 169.55S846.95 165.3 866.36 165.3S887.26 165.84 906.62 165.84S927.53 165.98 946.89 165.98S967.7 169.86 987.15 169.86S1008.05 164.4 1027.42 164.4S1047.77 166.45 1067.68 166.45S1088.28 164.83 1107.95 164.83S1128.83 164.47 1148.21 164.47L1116 316 L-100 316 Z;M-100 163.24C-79.72 163.97 -79.08 165.87 -59.74 165.87S-39.32 168.64 -19.47 168.64S1.02 168.91 20.79 168.91S41.01 167.97 61.06 167.97S81.55 165.48 101.32 165.48S121.61 162.78 141.59 162.78S162.48 164.47 181.85 164.47S202.44 169.71 222.12 169.71S242.33 167.83 262.38 167.83S282.58 164.02 302.65 164.02S323.35 170.15 342.91 170.15S363.09 165.16 383.18 165.16S403.96 168.43 423.44 168.43S444.25 167.57 463.71 167.57S484.37 171.8 503.97 171.8S524.59 165.57 544.24 165.57S565.14 165.3 584.5 165.3S604.96 167.73 624.77 167.73S645.46 168.65 665.03 168.65S685.27 169.67 705.3 169.67S725.71 167.99 745.56 167.99S766.12 166.42 785.83 166.42S806.62 168 826.09 168S846.28 167.98 866.36 167.98S886.96 166.74 906.62 166.74S927.08 167.63 946.89 167.63S967.41 167.09 987.15 167.09S1007.73 165.39 1027.42 165.39S1047.7 169.47 1067.68 169.47S1088.23 168.68 1107.95 168.68S1128.33 165.19 1148.21 165.19L1116 316 L-100 316 Z"></animate>
  <animateTransform attributeName="transform" type="translate" dur="22.5s" begin="-2.25s" repeatCount="indefinite" values="0;10;0" calcMode="spline" keySplines="0.3 0 0.7 1;0.3 0 0.7 1"></animateTransform>
</path><path d="M-100 173.81C-79.03 174.48 -78.54 176.14 -58.64 176.14S-37.37 171.86 -17.28 171.86S3.46 181.69 24.08 181.69S45.3 175.42 65.44 175.42S86.5 175.55 106.8 175.55S128.24 175.77 148.16 175.77S168.96 180.9 189.52 180.9S210.78 175.11 230.88 175.11S251.69 179.36 272.24 179.36S293.18 177.76 313.61 177.76S334.65 177.5 354.97 177.5S375.88 172.84 396.33 172.84S417.18 174.56 437.69 174.56S458.81 176.75 479.05 176.75S500.04 181.47 520.41 181.47S541.27 172.63 561.77 172.63S582.97 175.63 603.13 175.63S624.33 171.47 644.49 171.47S665.72 178.65 685.85 178.65S706.81 176.86 727.21 176.86S748.36 180.28 768.57 180.28S789.77 177.01 809.93 177.01S831.29 178.52 851.29 178.52S872.31 172.42 892.65 172.42S914.07 175.68 934.01 175.68S954.84 175.21 975.37 175.21S996.34 179.53 1016.73 179.53S1037.43 175.49 1058.1 175.49S1079.53 180.52 1099.46 180.52S1120.91 172.84 1140.82 172.84L1116 316 L-100 316 Z" fill="#3b5658" stroke-width="0">
  <animate attributeName="d" dur="20s" repeatCount="indefinite" values="M-100 173.81C-79.03 174.48 -78.54 176.14 -58.64 176.14S-37.37 171.86 -17.28 171.86S3.46 181.69 24.08 181.69S45.3 175.42 65.44 175.42S86.5 175.55 106.8 175.55S128.24 175.77 148.16 175.77S168.96 180.9 189.52 180.9S210.78 175.11 230.88 175.11S251.69 179.36 272.24 179.36S293.18 177.76 313.61 177.76S334.65 177.5 354.97 177.5S375.88 172.84 396.33 172.84S417.18 174.56 437.69 174.56S458.81 176.75 479.05 176.75S500.04 181.47 520.41 181.47S541.27 172.63 561.77 172.63S582.97 175.63 603.13 175.63S624.33 171.47 644.49 171.47S665.72 178.65 685.85 178.65S706.81 176.86 727.21 176.86S748.36 180.28 768.57 180.28S789.77 177.01 809.93 177.01S831.29 178.52 851.29 178.52S872.31 172.42 892.65 172.42S914.07 175.68 934.01 175.68S954.84 175.21 975.37 175.21S996.34 179.53 1016.73 179.53S1037.43 175.49 1058.1 175.49S1079.53 180.52 1099.46 180.52S1120.91 172.84 1140.82 172.84L1116 316 L-100 316 Z;M-100 173.48C-79.15 175.77 -79.13 177.23 -58.64 177.23S-37.27 173.72 -17.28 173.72S3.99 177.23 24.08 177.23S45.3 177.12 65.44 177.12S86.24 175.21 106.8 175.21S127.85 175.57 148.16 175.57S169.04 176.5 189.52 176.5S210.56 177.74 230.88 177.74S251.77 175.64 272.24 175.64S293.54 172.09 313.61 172.09S334.82 177.6 354.97 177.6S375.79 175.91 396.33 175.91S417.49 178.11 437.69 178.11S458.43 173.82 479.05 173.82S499.81 176.27 520.41 176.27S541.71 174.04 561.77 174.04S582.82 176.67 603.13 176.67S624.14 177.61 644.49 177.61S665.63 181.67 685.85 181.67S707.27 175.93 727.21 175.93S748.66 175.92 768.57 175.92S789.52 176.84 809.93 176.84S830.62 180.93 851.29 180.93S872.68 171.71 892.65 171.71S914 174.52 934.01 174.52S955.24 175.03 975.37 175.03S996.64 178.23 1016.73 178.23S1037.83 171.05 1058.1 171.05S1079.04 179.95 1099.46 179.95S1120.6 173.98 1140.82 173.98L1116 316 L-100 316 Z;M-100 173.81C-79.03 174.48 -78.54 176.14 -58.64 176.14S-37.37 171.86 -17.28 171.86S3.46 181.69 24.08 181.69S45.3 175.42 65.44 175.42S86.5 175.55 106.8 175.55S128.24 175.77 148.16 175.77S168.96 180.9 189.52 180.9S210.78 175.11 230.88 175.11S251.69 179.36 272.24 179.36S293.18 177.76 313.61 177.76S334.65 177.5 354.97 177.5S375.88 172.84 396.33 172.84S417.18 174.56 437.69 174.56S458.81 176.75 479.05 176.75S500.04 181.47 520.41 181.47S541.27 172.63 561.77 172.63S582.97 175.63 603.13 175.63S624.33 171.47 644.49 171.47S665.72 178.65 685.85 178.65S706.81 176.86 727.21 176.86S748.36 180.28 768.57 180.28S789.77 177.01 809.93 177.01S831.29 178.52 851.29 178.52S872.31 172.42 892.65 172.42S914.07 175.68 934.01 175.68S954.84 175.21 975.37 175.21S996.34 179.53 1016.73 179.53S1037.43 175.49 1058.1 175.49S1079.53 180.52 1099.46 180.52S1120.91 172.84 1140.82 172.84L1116 316 L-100 316 Z"></animate>
  <animateTransform attributeName="transform" type="translate" dur="20s" begin="-4s" repeatCount="indefinite" values="0;10;0" calcMode="spline" keySplines="0.3 0 0.7 1;0.3 0 0.7 1"></animateTransform>
</path><path d="M-100 179.83C-78.38 182.39 -78.72 190.23 -57.48 190.23S-35.93 181.14 -14.97 181.14S6.66 184.75 27.55 184.75S49.22 183.37 70.07 183.37S91.64 190.86 112.59 190.86S134.14 182.69 155.1 182.69S176.68 183.78 197.62 183.78S219.63 185.87 240.14 185.87S261.98 186.67 282.66 186.67S304.56 186.27 325.17 186.27S347.17 190.48 367.69 190.48S389.71 180.31 410.21 180.31S432 185.66 452.73 185.66S474.41 184.9 495.24 184.9S516.71 185.1 537.76 185.1S559.3 184.31 580.28 184.31S601.76 183.56 622.8 183.56S644.42 184.72 665.31 184.72S686.69 189.61 707.83 189.61S729.68 185.38 750.35 185.38S772 188.19 792.87 188.19S814.37 179.26 835.38 179.26S857.2 187.55 877.9 187.55S899.68 186.21 920.42 186.21S941.96 185.73 962.94 185.73S984.35 185.78 1005.45 185.78S1026.9 183.1 1047.97 183.1S1069.61 180.08 1090.49 180.08S1111.98 185.74 1133.01 185.74L1116 316 L-100 316 Z" fill="#51696b" stroke-width="0">
  <animate attributeName="d" dur="17.5s" repeatCount="indefinite" values="M-100 179.83C-78.38 182.39 -78.72 190.23 -57.48 190.23S-35.93 181.14 -14.97 181.14S6.66 184.75 27.55 184.75S49.22 183.37 70.07 183.37S91.64 190.86 112.59 190.86S134.14 182.69 155.1 182.69S176.68 183.78 197.62 183.78S219.63 185.87 240.14 185.87S261.98 186.67 282.66 186.67S304.56 186.27 325.17 186.27S347.17 190.48 367.69 190.48S389.71 180.31 410.21 180.31S432 185.66 452.73 185.66S474.41 184.9 495.24 184.9S516.71 185.1 537.76 185.1S559.3 184.31 580.28 184.31S601.76 183.56 622.8 183.56S644.42 184.72 665.31 184.72S686.69 189.61 707.83 189.61S729.68 185.38 750.35 185.38S772 188.19 792.87 188.19S814.37 179.26 835.38 179.26S857.2 187.55 877.9 187.55S899.68 186.21 920.42 186.21S941.96 185.73 962.94 185.73S984.35 185.78 1005.45 185.78S1026.9 183.1 1047.97 183.1S1069.61 180.08 1090.49 180.08S1111.98 185.74 1133.01 185.74L1116 316 L-100 316 Z;M-100 184.31C-78.33 185.34 -78.72 186.62 -57.48 186.62S-36.14 181.84 -14.97 181.84S6.88 184.89 27.55 184.89S48.87 182.11 70.07 182.11S91.57 185.61 112.59 185.61S134.62 183.54 155.1 183.54S177.02 184.3 197.62 184.3S219.63 190.61 240.14 190.61S261.44 183.99 282.66 183.99S304.24 186.37 325.17 186.37S346.99 186 367.69 186S389.39 183.73 410.21 183.73S432.06 188.27 452.73 188.27S474.66 184.37 495.24 184.37S516.57 183.68 537.76 183.68S559.14 178.64 580.28 178.64S601.88 185.4 622.8 185.4S644.64 181.02 665.31 181.02S686.88 187.81 707.83 187.81S729.75 184.62 750.35 184.62S772.38 183.04 792.87 183.04S814.35 184.73 835.38 184.73S856.92 186.46 877.9 186.46S899.4 179.31 920.42 179.31S942.06 186.8 962.94 186.8S984.32 183.59 1005.45 183.59S1026.86 187.96 1047.97 187.96S1069.92 184.12 1090.49 184.12S1111.87 184.02 1133.01 184.02L1116 316 L-100 316 Z;M-100 179.83C-78.38 182.39 -78.72 190.23 -57.48 190.23S-35.93 181.14 -14.97 181.14S6.66 184.75 27.55 184.75S49.22 183.37 70.07 183.37S91.64 190.86 112.59 190.86S134.14 182.69 155.1 182.69S176.68 183.78 197.62 183.78S219.63 185.87 240.14 185.87S261.98 186.67 282.66 186.67S304.56 186.27 325.17 186.27S347.17 190.48 367.69 190.48S389.71 180.31 410.21 180.31S432 185.66 452.73 185.66S474.41 184.9 495.24 184.9S516.71 185.1 537.76 185.1S559.3 184.31 580.28 184.31S601.76 183.56 622.8 183.56S644.42 184.72 665.31 184.72S686.69 189.61 707.83 189.61S729.68 185.38 750.35 185.38S772 188.19 792.87 188.19S814.37 179.26 835.38 179.26S857.2 187.55 877.9 187.55S899.68 186.21 920.42 186.21S941.96 185.73 962.94 185.73S984.35 185.78 1005.45 185.78S1026.9 183.1 1047.97 183.1S1069.61 180.08 1090.49 180.08S1111.98 185.74 1133.01 185.74L1116 316 L-100 316 Z"></animate>
  <animateTransform attributeName="transform" type="translate" dur="17.5s" begin="-5.25s" repeatCount="indefinite" values="0;10;0" calcMode="spline" keySplines="0.3 0 0.7 1;0.3 0 0.7 1"></animateTransform>
</path><path d="M-100 200.49C-77.9 197.35 -77.87 195.76 -56.26 195.76S-33.88 192.7 -12.52 192.7S9.56 197.19 31.22 197.19S53.76 187.27 74.96 187.27S97.05 197.69 118.71 197.69S140.73 190.84 162.45 190.84S184.85 197.98 206.19 197.98S228.64 195.07 249.93 195.07S271.86 195.56 293.67 195.56S315.88 189.78 337.41 189.78S359.47 197.05 381.15 197.05S403.74 195.83 424.89 195.83S447.4 197.53 468.63 197.53S491.2 188.13 512.37 188.13S534.66 193.53 556.12 193.53S578.12 190.33 599.86 190.33S622.24 192.78 643.6 192.78S665.75 192.62 687.34 192.62S709.42 200.1 731.08 200.1S753.56 187.19 774.82 187.19S796.81 196.25 818.56 196.25S840.73 188.96 862.3 188.96S884.87 193.76 906.04 193.76S928.01 191.49 949.78 191.49S972.25 198.85 993.53 198.85S1015.71 190.91 1037.27 190.91S1059.28 192.09 1081.01 192.09S1102.9 192.6 1124.75 192.6L1116 316 L-100 316 Z" fill="#677d7f" stroke-width="0">
  <animate attributeName="d" dur="15s" repeatCount="indefinite" values="M-100 200.49C-77.9 197.35 -77.87 195.76 -56.26 195.76S-33.88 192.7 -12.52 192.7S9.56 197.19 31.22 197.19S53.76 187.27 74.96 187.27S97.05 197.69 118.71 197.69S140.73 190.84 162.45 190.84S184.85 197.98 206.19 197.98S228.64 195.07 249.93 195.07S271.86 195.56 293.67 195.56S315.88 189.78 337.41 189.78S359.47 197.05 381.15 197.05S403.74 195.83 424.89 195.83S447.4 197.53 468.63 197.53S491.2 188.13 512.37 188.13S534.66 193.53 556.12 193.53S578.12 190.33 599.86 190.33S622.24 192.78 643.6 192.78S665.75 192.62 687.34 192.62S709.42 200.1 731.08 200.1S753.56 187.19 774.82 187.19S796.81 196.25 818.56 196.25S840.73 188.96 862.3 188.96S884.87 193.76 906.04 193.76S928.01 191.49 949.78 191.49S972.25 198.85 993.53 198.85S1015.71 190.91 1037.27 190.91S1059.28 192.09 1081.01 192.09S1102.9 192.6 1124.75 192.6L1116 316 L-100 316 Z;M-100 192.9C-78.09 192.4 -77.86 199.61 -56.26 199.61S-34.16 193.38 -12.52 193.38S9.87 197.33 31.22 197.33S53.16 187.33 74.96 187.33S97.39 193.36 118.71 193.36S140.69 189.33 162.45 189.33S184.7 197.44 206.19 197.44S228.83 191.38 249.93 191.38S272.34 194.65 293.67 194.65S315.64 195.83 337.41 195.83S359.37 200.29 381.15 200.29S403.44 195.24 424.89 195.24S447.29 195.61 468.63 195.61S490.65 192.56 512.37 192.56S534.88 194.91 556.12 194.91S578.21 195.82 599.86 195.82S621.91 192.82 643.6 192.82S666.05 194.22 687.34 194.22S709.95 199.95 731.08 199.95S753.36 186.99 774.82 186.99S797.18 195.17 818.56 195.17S840.89 193.91 862.3 193.91S884.91 199.68 906.04 199.68S928.24 196.98 949.78 196.98S971.7 199.08 993.53 199.08S1016.09 193.28 1037.27 193.28S1059.14 200.07 1081.01 200.07S1103.47 190.74 1124.75 190.74L1116 316 L-100 316 Z;M-100 200.49C-77.9 197.35 -77.87 195.76 -56.26 195.76S-33.88 192.7 -12.52 192.7S9.56 197.19 31.22 197.19S53.76 187.27 74.96 187.27S97.05 197.69 118.71 197.69S140.73 190.84 162.45 190.84S184.85 197.98 206.19 197.98S228.64 195.07 249.93 195.07S271.86 195.56 293.67 195.56S315.88 189.78 337.41 189.78S359.47 197.05 381.15 197.05S403.74 195.83 424.89 195.83S447.4 197.53 468.63 197.53S491.2 188.13 512.37 188.13S534.66 193.53 556.12 193.53S578.12 190.33 599.86 190.33S622.24 192.78 643.6 192.78S665.75 192.62 687.34 192.62S709.42 200.1 731.08 200.1S753.56 187.19 774.82 187.19S796.81 196.25 818.56 196.25S840.73 188.96 862.3 188.96S884.87 193.76 906.04 193.76S928.01 191.49 949.78 191.49S972.25 198.85 993.53 198.85S1015.71 190.91 1037.27 190.91S1059.28 192.09 1081.01 192.09S1102.9 192.6 1124.75 192.6L1116 316 L-100 316 Z"></animate>
  <animateTransform attributeName="transform" type="translate" dur="15s" begin="-6s" repeatCount="indefinite" values="0;10;0" calcMode="spline" keySplines="0.3 0 0.7 1;0.3 0 0.7 1"></animateTransform>
</path><path d="M-100 199.43C-77.21 199.64 -77.29 204.15 -54.96 204.15S-32.01 199.67 -9.93 199.67S13.27 196.23 35.11 196.23S57.84 209.32 80.15 209.32S102.91 205.98 125.19 205.98S147.93 197.83 170.22 197.83S193.44 205.9 215.26 205.9S238.36 196.84 260.3 196.84S283.47 207.12 305.33 207.12S328.37 201.57 350.37 201.57S372.97 196.51 395.41 196.51S418.44 201.91 440.44 201.91S463.02 205.28 485.48 205.28S508.34 201.02 530.52 201.02S553.6 206.24 575.56 206.24S598.21 195.9 620.59 195.9S643.64 206.63 665.63 206.63S688.9 200.92 710.67 200.92S733.3 203.22 755.7 203.22S778.94 196.72 800.74 196.72S823.29 207.6 845.78 207.6S868.77 205.77 890.81 205.77S913.82 200.22 935.85 200.22S958.49 196.78 980.89 196.78S1003.76 206.01 1025.93 206.01S1048.64 197.79 1070.96 197.79S1093.64 206.35 1116 206.35S1139.12 206.91 1161.04 206.91L1116 316 L-100 316 Z" fill="#7e9193" stroke-width="0">
  <animate attributeName="d" dur="12.5s" repeatCount="indefinite" values="M-100 199.43C-77.21 199.64 -77.29 204.15 -54.96 204.15S-32.01 199.67 -9.93 199.67S13.27 196.23 35.11 196.23S57.84 209.32 80.15 209.32S102.91 205.98 125.19 205.98S147.93 197.83 170.22 197.83S193.44 205.9 215.26 205.9S238.36 196.84 260.3 196.84S283.47 207.12 305.33 207.12S328.37 201.57 350.37 201.57S372.97 196.51 395.41 196.51S418.44 201.91 440.44 201.91S463.02 205.28 485.48 205.28S508.34 201.02 530.52 201.02S553.6 206.24 575.56 206.24S598.21 195.9 620.59 195.9S643.64 206.63 665.63 206.63S688.9 200.92 710.67 200.92S733.3 203.22 755.7 203.22S778.94 196.72 800.74 196.72S823.29 207.6 845.78 207.6S868.77 205.77 890.81 205.77S913.82 200.22 935.85 200.22S958.49 196.78 980.89 196.78S1003.76 206.01 1025.93 206.01S1048.64 197.79 1070.96 197.79S1093.64 206.35 1116 206.35S1139.12 206.91 1161.04 206.91L1116 316 L-100 316 Z;M-100 195.72C-76.95 198.44 -77.26 209.28 -54.96 209.28S-31.8 200.89 -9.93 200.89S12.98 208.07 35.11 208.07S57.88 201.83 80.15 201.83S103.38 195.78 125.19 195.78S148.02 196.91 170.22 196.91S193.11 207.69 215.26 207.69S237.79 195.56 260.3 195.56S283.2 206.02 305.33 206.02S327.93 197.57 350.37 197.57S373.11 202.94 395.41 202.94S418.71 201.27 440.44 201.27S463.25 203.03 485.48 203.03S508.01 195.96 530.52 195.96S553.33 202.37 575.56 202.37S598.63 196.74 620.59 196.74S643.59 204.52 665.63 204.52S688.15 199.45 710.67 199.45S733.29 205.71 755.7 205.71S778.4 194.74 800.74 194.74S823.63 209.69 845.78 209.69S868.44 202.53 890.81 202.53S914.12 197.89 935.85 197.89S958.56 199.59 980.89 199.59S1003.55 194.36 1025.93 194.36S1049.18 195.78 1070.96 195.78S1093.75 205.58 1116 205.58S1139.24 197.15 1161.04 197.15L1116 316 L-100 316 Z;M-100 199.43C-77.21 199.64 -77.29 204.15 -54.96 204.15S-32.01 199.67 -9.93 199.67S13.27 196.23 35.11 196.23S57.84 209.32 80.15 209.32S102.91 205.98 125.19 205.98S147.93 197.83 170.22 197.83S193.44 205.9 215.26 205.9S238.36 196.84 260.3 196.84S283.47 207.12 305.33 207.12S328.37 201.57 350.37 201.57S372.97 196.51 395.41 196.51S418.44 201.91 440.44 201.91S463.02 205.28 485.48 205.28S508.34 201.02 530.52 201.02S553.6 206.24 575.56 206.24S598.21 195.9 620.59 195.9S643.64 206.63 665.63 206.63S688.9 200.92 710.67 200.92S733.3 203.22 755.7 203.22S778.94 196.72 800.74 196.72S823.29 207.6 845.78 207.6S868.77 205.77 890.81 205.77S913.82 200.22 935.85 200.22S958.49 196.78 980.89 196.78S1003.76 206.01 1025.93 206.01S1048.64 197.79 1070.96 197.79S1093.64 206.35 1116 206.35S1139.12 206.91 1161.04 206.91L1116 316 L-100 316 Z"></animate>
  <animateTransform attributeName="transform" type="translate" dur="12.5s" begin="-6.25s" repeatCount="indefinite" values="0;10;0" calcMode="spline" keySplines="0.3 0 0.7 1;0.3 0 0.7 1"></animateTransform>
</path><path d="M-100 206.45C-76.73 208.38 -76.66 213.77 -53.59 213.77S-29.89 208.33 -7.18 208.33S16.15 208.38 39.24 208.38S62.65 202.59 85.65 202.59S109.45 217.85 132.06 217.85S155.52 205.17 178.47 205.17S202.3 204.25 224.89 204.25S248.38 208.78 271.3 208.78S294.68 215.87 317.71 215.87S341.14 208.47 364.12 208.47S388.05 217.01 410.53 217.01S434.21 202.49 456.95 202.49S480.47 213.74 503.36 213.74S526.82 202.5 549.77 202.5S573.54 218.12 596.18 218.12S619.4 205.86 642.6 205.86S666.09 218.1 689.01 218.1S712.69 209.01 735.42 209.01S758.96 218.57 781.83 218.57S805.74 207.4 828.24 207.4S851.97 216.63 874.66 216.63S898.45 207.38 921.07 207.38S944.87 215.47 967.48 215.47S990.77 203.8 1013.89 203.8S1037.46 213.12 1060.31 213.12S1083.78 205.96 1106.72 205.96S1130.22 218.96 1153.13 218.96L1116 316 L-100 316 Z" fill="#95a6a7" stroke-width="0">
  <animate attributeName="d" dur="10s" repeatCount="indefinite" values="M-100 206.45C-76.73 208.38 -76.66 213.77 -53.59 213.77S-29.89 208.33 -7.18 208.33S16.15 208.38 39.24 208.38S62.65 202.59 85.65 202.59S109.45 217.85 132.06 217.85S155.52 205.17 178.47 205.17S202.3 204.25 224.89 204.25S248.38 208.78 271.3 208.78S294.68 215.87 317.71 215.87S341.14 208.47 364.12 208.47S388.05 217.01 410.53 217.01S434.21 202.49 456.95 202.49S480.47 213.74 503.36 213.74S526.82 202.5 549.77 202.5S573.54 218.12 596.18 218.12S619.4 205.86 642.6 205.86S666.09 218.1 689.01 218.1S712.69 209.01 735.42 209.01S758.96 218.57 781.83 218.57S805.74 207.4 828.24 207.4S851.97 216.63 874.66 216.63S898.45 207.38 921.07 207.38S944.87 215.47 967.48 215.47S990.77 203.8 1013.89 203.8S1037.46 213.12 1060.31 213.12S1083.78 205.96 1106.72 205.96S1130.22 218.96 1153.13 218.96L1116 316 L-100 316 Z;M-100 212.42C-76.29 213.5 -76.67 214.9 -53.59 214.9S-30.37 206.06 -7.18 206.06S16.74 213.93 39.24 213.93S62.55 208.7 85.65 208.7S109.43 212.49 132.06 212.49S155.57 209.29 178.47 209.29S202.15 217.63 224.89 217.63S248.28 208.14 271.3 208.14S294.52 219.2 317.71 219.2S341.04 206.95 364.12 206.95S387.52 215.39 410.53 215.39S434.25 212.17 456.95 212.17S480.17 213.87 503.36 213.87S527.15 203.71 549.77 203.71S573.5 219.3 596.18 219.3S619.48 202.31 642.6 202.31S666.33 218.3 689.01 218.3S712.32 204.3 735.42 204.3S758.66 212.12 781.83 212.12S805.26 209.45 828.24 209.45S851.68 203.29 874.66 203.29S898.38 207.37 921.07 207.37S945.04 215.09 967.48 215.09S990.99 212.85 1013.89 212.85S1037.17 216.16 1060.31 216.16S1084.14 207.81 1106.72 207.81S1130.39 217.08 1153.13 217.08L1116 316 L-100 316 Z;M-100 206.45C-76.73 208.38 -76.66 213.77 -53.59 213.77S-29.89 208.33 -7.18 208.33S16.15 208.38 39.24 208.38S62.65 202.59 85.65 202.59S109.45 217.85 132.06 217.85S155.52 205.17 178.47 205.17S202.3 204.25 224.89 204.25S248.38 208.78 271.3 208.78S294.68 215.87 317.71 215.87S341.14 208.47 364.12 208.47S388.05 217.01 410.53 217.01S434.21 202.49 456.95 202.49S480.47 213.74 503.36 213.74S526.82 202.5 549.77 202.5S573.54 218.12 596.18 218.12S619.4 205.86 642.6 205.86S666.09 218.1 689.01 218.1S712.69 209.01 735.42 209.01S758.96 218.57 781.83 218.57S805.74 207.4 828.24 207.4S851.97 216.63 874.66 216.63S898.45 207.38 921.07 207.38S944.87 215.47 967.48 215.47S990.77 203.8 1013.89 203.8S1037.46 213.12 1060.31 213.12S1083.78 205.96 1106.72 205.96S1130.22 218.96 1153.13 218.96L1116 316 L-100 316 Z"></animate>
  <animateTransform attributeName="transform" type="translate" dur="10s" begin="-6s" repeatCount="indefinite" values="0;10;0" calcMode="spline" keySplines="0.3 0 0.7 1;0.3 0 0.7 1"></animateTransform>
</path><path d="M-100 215.66C-75.33 211.88 -75.5 226.16 -52.13 226.16S-27.92 215.48 -4.25 215.48S19.94 227.96 43.62 227.96S68.3 211.74 91.5 211.74S116.18 226.87 139.37 226.87S163.52 215.03 187.24 215.03S211.65 228.44 235.12 228.44S259.17 210.97 282.99 210.97S307.05 223.51 330.87 223.51S354.92 215.73 378.74 215.73S403.4 221.52 426.61 221.52S451.18 214.86 474.49 214.86S498.96 228.14 522.36 228.14S546.97 216.4 570.24 216.4S594.65 228.2 618.11 228.2S642.78 225.42 665.98 225.42S690 227.56 713.86 227.56S737.8 217.7 761.73 217.7S786.15 224.97 809.61 224.97S834.1 214.74 857.48 214.74S882.04 212.58 905.35 212.58S929.75 212.73 953.23 212.73S977.5 225.27 1001.1 225.27S1025.15 212.98 1048.98 212.98S1073.09 225.38 1096.85 225.38S1121.22 213.01 1144.72 213.01L1116 316 L-100 316 Z" fill="#adbcbc" stroke-width="0">
  <animate attributeName="d" dur="7.5s" repeatCount="indefinite" values="M-100 215.66C-75.33 211.88 -75.5 226.16 -52.13 226.16S-27.92 215.48 -4.25 215.48S19.94 227.96 43.62 227.96S68.3 211.74 91.5 211.74S116.18 226.87 139.37 226.87S163.52 215.03 187.24 215.03S211.65 228.44 235.12 228.44S259.17 210.97 282.99 210.97S307.05 223.51 330.87 223.51S354.92 215.73 378.74 215.73S403.4 221.52 426.61 221.52S451.18 214.86 474.49 214.86S498.96 228.14 522.36 228.14S546.97 216.4 570.24 216.4S594.65 228.2 618.11 228.2S642.78 225.42 665.98 225.42S690 227.56 713.86 227.56S737.8 217.7 761.73 217.7S786.15 224.97 809.61 224.97S834.1 214.74 857.48 214.74S882.04 212.58 905.35 212.58S929.75 212.73 953.23 212.73S977.5 225.27 1001.1 225.27S1025.15 212.98 1048.98 212.98S1073.09 225.38 1096.85 225.38S1121.22 213.01 1144.72 213.01L1116 316 L-100 316 Z;M-100 222.65C-75.63 222.62 -75.48 212.95 -52.13 212.95S-28.06 215.6 -4.25 215.6S20.13 215.04 43.62 215.04S67.57 210.43 91.5 210.43S115.46 223.65 139.37 223.65S163.87 212.68 187.24 212.68S211.31 221.86 235.12 221.86S259.38 217.59 282.99 217.59S307.03 228.7 330.87 228.7S355.48 213.13 378.74 213.13S402.86 223.9 426.61 223.9S451.16 227.25 474.49 227.25S498.5 224.05 522.36 224.05S546.46 211.64 570.24 211.64S594.47 222.78 618.11 222.78S642.23 213.11 665.98 213.11S690.13 226.02 713.86 226.02S738.01 210.32 761.73 210.32S786.17 228.2 809.61 228.2S834.23 212.79 857.48 212.79S881.45 228.66 905.35 228.66S929.79 213.93 953.23 213.93S977.91 222.09 1001.1 222.09S1025.41 211.24 1048.98 211.24S1073.23 225.61 1096.85 225.61S1121.4 212.65 1144.72 212.65L1116 316 L-100 316 Z;M-100 215.66C-75.33 211.88 -75.5 226.16 -52.13 226.16S-27.92 215.48 -4.25 215.48S19.94 227.96 43.62 227.96S68.3 211.74 91.5 211.74S116.18 226.87 139.37 226.87S163.52 215.03 187.24 215.03S211.65 228.44 235.12 228.44S259.17 210.97 282.99 210.97S307.05 223.51 330.87 223.51S354.92 215.73 378.74 215.73S403.4 221.52 426.61 221.52S451.18 214.86 474.49 214.86S498.96 228.14 522.36 228.14S546.97 216.4 570.24 216.4S594.65 228.2 618.11 228.2S642.78 225.42 665.98 225.42S690 227.56 713.86 227.56S737.8 217.7 761.73 217.7S786.15 224.97 809.61 224.97S834.1 214.74 857.48 214.74S882.04 212.58 905.35 212.58S929.75 212.73 953.23 212.73S977.5 225.27 1001.1 225.27S1025.15 212.98 1048.98 212.98S1073.09 225.38 1096.85 225.38S1121.22 213.01 1144.72 213.01L1116 316 L-100 316 Z"></animate>
  <animateTransform attributeName="transform" type="translate" dur="7.5s" begin="-5.25s" repeatCount="indefinite" values="0;10;0" calcMode="spline" keySplines="0.3 0 0.7 1;0.3 0 0.7 1"></animateTransform>
</path><path d="M-100 237.13C-75.14 231.17 -75.17 235.68 -50.57 235.68S-25.55 223.55 -1.14 223.55S23.75 236.53 48.29 236.53S73.32 234.27 97.72 234.27S123.01 237.62 147.15 237.62S171.98 219.97 196.59 219.97S222.03 236.17 246.02 236.17S271.05 222.8 295.45 222.8S320.75 231.46 344.88 231.46S370.21 221.27 394.31 221.27S419.25 236.5 443.74 236.5S468.97 224.11 493.17 224.11S518.25 235.43 542.6 235.43S567.39 224.55 592.03 224.55S617.26 235.95 641.46 235.95S666.58 220.89 690.89 220.89S716.05 225.43 740.33 225.43S765.25 225.67 789.76 225.67S814.79 231.14 839.19 231.14S864.24 235.37 888.62 235.37S913.46 238.28 938.05 238.28S963.05 233.27 987.48 233.27S1012.49 234.41 1036.91 234.41S1061.66 221.37 1086.34 221.37S1111.52 234.35 1135.77 234.35L1116 316 L-100 316 Z" fill="#c6d2d2" stroke-width="0">
  <animate attributeName="d" dur="5s" repeatCount="indefinite" values="M-100 237.13C-75.14 231.17 -75.17 235.68 -50.57 235.68S-25.55 223.55 -1.14 223.55S23.75 236.53 48.29 236.53S73.32 234.27 97.72 234.27S123.01 237.62 147.15 237.62S171.98 219.97 196.59 219.97S222.03 236.17 246.02 236.17S271.05 222.8 295.45 222.8S320.75 231.46 344.88 231.46S370.21 221.27 394.31 221.27S419.25 236.5 443.74 236.5S468.97 224.11 493.17 224.11S518.25 235.43 542.6 235.43S567.39 224.55 592.03 224.55S617.26 235.95 641.46 235.95S666.58 220.89 690.89 220.89S716.05 225.43 740.33 225.43S765.25 225.67 789.76 225.67S814.79 231.14 839.19 231.14S864.24 235.37 888.62 235.37S913.46 238.28 938.05 238.28S963.05 233.27 987.48 233.27S1012.49 234.41 1036.91 234.41S1061.66 221.37 1086.34 221.37S1111.52 234.35 1135.77 234.35L1116 316 L-100 316 Z;M-100 223.93C-74.93 221.25 -75.03 221.04 -50.57 221.04S-25.27 218.18 -1.14 218.18S23.93 237.3 48.29 237.3S73.42 224.21 97.72 224.21S122.99 234.15 147.15 234.15S172.17 218.95 196.59 218.95S221.69 234.61 246.02 234.61S270.77 222.73 295.45 222.73S320.61 231.82 344.88 231.82S369.61 219.3 394.31 219.3S419.12 232.47 443.74 232.47S469.16 225.05 493.17 225.05S518.64 232.37 542.6 232.37S567.66 218.75 592.03 218.75S616.87 237.22 641.46 237.22S666.4 219.74 690.89 219.74S716.33 238 740.33 238S765.73 225.27 789.76 225.27S814.86 236.74 839.19 236.74S864.51 225.72 888.62 225.72S913.78 238.29 938.05 238.29S963.26 219.4 987.48 219.4S1012.97 233.54 1036.91 233.54S1061.93 225.74 1086.34 225.74S1111.44 232.12 1135.77 232.12L1116 316 L-100 316 Z;M-100 237.13C-75.14 231.17 -75.17 235.68 -50.57 235.68S-25.55 223.55 -1.14 223.55S23.75 236.53 48.29 236.53S73.32 234.27 97.72 234.27S123.01 237.62 147.15 237.62S171.98 219.97 196.59 219.97S222.03 236.17 246.02 236.17S271.05 222.8 295.45 222.8S320.75 231.46 344.88 231.46S370.21 221.27 394.31 221.27S419.25 236.5 443.74 236.5S468.97 224.11 493.17 224.11S518.25 235.43 542.6 235.43S567.39 224.55 592.03 224.55S617.26 235.95 641.46 235.95S666.58 220.89 690.89 220.89S716.05 225.43 740.33 225.43S765.25 225.67 789.76 225.67S814.79 231.14 839.19 231.14S864.24 235.37 888.62 235.37S913.46 238.28 938.05 238.28S963.05 233.27 987.48 233.27S1012.49 234.41 1036.91 234.41S1061.66 221.37 1086.34 221.37S1111.52 234.35 1135.77 234.35L1116 316 L-100 316 Z"></animate>
  <animateTransform attributeName="transform" type="translate" dur="5s" begin="-4s" repeatCount="indefinite" values="0;10;0" calcMode="spline" keySplines="0.3 0 0.7 1;0.3 0 0.7 1"></animateTransform>
</path><path d="M-100 229.02C-73.8 230.06 -74.34 228.39 -48.91 228.39S-23.23 228.94 2.18 228.94S28.03 242.43 53.28 242.43S79.33 231.83 104.37 231.83S130.01 242.29 155.46 242.29S181.08 230.38 206.55 230.38S232.44 241.06 257.65 241.06S283.54 226.64 308.74 226.64S334.69 243.76 359.83 243.76S385.61 228.72 410.92 228.72S436.56 240.39 462.02 240.39S488.05 226.28 513.11 226.28S538.67 241.13 564.2 241.13S590.2 227.51 615.29 227.51S641.04 247.26 666.39 247.26S692.15 232.98 717.48 232.98S743.8 230.91 768.57 230.91S794.14 228.5 819.66 228.5S845.64 240.94 870.76 240.94S896.57 232.95 921.85 232.95S947.84 244.35 972.94 244.35S998.77 229.93 1024.03 229.93S1049.87 245.98 1075.13 245.98S1100.69 227.35 1126.22 227.35L1116 316 L-100 316 Z" fill="#dfe8e8" stroke-width="0">
  <animate attributeName="d" dur="2.5s" repeatCount="indefinite" values="M-100 229.02C-73.8 230.06 -74.34 228.39 -48.91 228.39S-23.23 228.94 2.18 228.94S28.03 242.43 53.28 242.43S79.33 231.83 104.37 231.83S130.01 242.29 155.46 242.29S181.08 230.38 206.55 230.38S232.44 241.06 257.65 241.06S283.54 226.64 308.74 226.64S334.69 243.76 359.83 243.76S385.61 228.72 410.92 228.72S436.56 240.39 462.02 240.39S488.05 226.28 513.11 226.28S538.67 241.13 564.2 241.13S590.2 227.51 615.29 227.51S641.04 247.26 666.39 247.26S692.15 232.98 717.48 232.98S743.8 230.91 768.57 230.91S794.14 228.5 819.66 228.5S845.64 240.94 870.76 240.94S896.57 232.95 921.85 232.95S947.84 244.35 972.94 244.35S998.77 229.93 1024.03 229.93S1049.87 245.98 1075.13 245.98S1100.69 227.35 1126.22 227.35L1116 316 L-100 316 Z;M-100 230.32C-73.77 231.18 -73.68 245.47 -48.91 245.47S-22.58 233.78 2.18 233.78S28.52 244.15 53.28 244.15S78.95 230.96 104.37 230.96S130.33 244.76 155.46 244.76S181.78 229.99 206.55 229.99S232.37 246.38 257.65 246.38S283.55 226.62 308.74 226.62S334.67 241.69 359.83 241.69S385.91 228.2 410.92 228.2S437.14 244.69 462.02 244.69S488.3 242.41 513.11 242.41S539.09 243.71 564.2 243.71S590.3 242.14 615.29 242.14S641.05 244.46 666.39 244.46S692.54 230.39 717.48 230.39S743.77 240.87 768.57 240.87S794.74 227.83 819.66 227.83S845.43 227.29 870.76 227.29S896.74 232.15 921.85 232.15S947.64 241.97 972.94 241.97S998.9 229.15 1024.03 229.15S1049.72 242.99 1075.13 242.99S1101.13 233.36 1126.22 233.36L1116 316 L-100 316 Z;M-100 229.02C-73.8 230.06 -74.34 228.39 -48.91 228.39S-23.23 228.94 2.18 228.94S28.03 242.43 53.28 242.43S79.33 231.83 104.37 231.83S130.01 242.29 155.46 242.29S181.08 230.38 206.55 230.38S232.44 241.06 257.65 241.06S283.54 226.64 308.74 226.64S334.69 243.76 359.83 243.76S385.61 228.72 410.92 228.72S436.56 240.39 462.02 240.39S488.05 226.28 513.11 226.28S538.67 241.13 564.2 241.13S590.2 227.51 615.29 227.51S641.04 247.26 666.39 247.26S692.15 232.98 717.48 232.98S743.8 230.91 768.57 230.91S794.14 228.5 819.66 228.5S845.64 240.94 870.76 240.94S896.57 232.95 921.85 232.95S947.84 244.35 972.94 244.35S998.77 229.93 1024.03 229.93S1049.87 245.98 1075.13 245.98S1100.69 227.35 1126.22 227.35L1116 316 L-100 316 Z"></animate>
  <animateTransform attributeName="transform" type="translate" dur="2.5s" begin="-2.25s" repeatCount="indefinite" values="0;10;0" calcMode="spline" keySplines="0.3 0 0.7 1;0.3 0 0.7 1"></animateTransform>
</path></g>
</svg>